<?xml version="1.0" standalone="no"?>
<!DOCTYPE svg PUBLIC "-//W3C//DTD SVG 20010904//EN"
 "http://www.w3.org/TR/2001/REC-SVG-20010904/DTD/svg10.dtd">
<svg version="1.0" xmlns="http://www.w3.org/2000/svg"
 width="537.000000pt" height="537.000000pt" viewBox="0 0 537.000000 537.000000"
 preserveAspectRatio="xMidYMid meet">
<metadata>
Created by potrace 1.11, written by Peter Selinger 2001-2013
</metadata>
<g transform="translate(0.000000,537.000000) scale(0.100000,-0.100000)"
fill="#000000" stroke="none">
<path d="M2490 5357 c-3 -3 -41 -7 -86 -11 -327 -25 -742 -157 -1047 -333
-239 -138 -500 -345 -652 -518 -33 -37 -65 -73 -71 -79 -67 -70 -210 -275
-293 -420 -170 -297 -295 -688 -329 -1026 -11 -119 -7 -516 6 -615 45 -322
125 -579 266 -860 136 -269 284 -474 496 -685 269 -269 553 -458 895 -595 356
-143 650 -196 1050 -191 132 2 251 6 265 9 14 3 48 8 75 12 426 55 872 239
1233 509 592 443 979 1117 1059 1846 10 97 10 483 0 580 -65 599 -338 1164
-771 1595 -444 441 -1002 707 -1626 773 -86 10 -462 16 -470 9z"/>
</g>
</svg>
